<svg xmlns="http://www.w3.org/2000/svg" viewBox="0 0 512 512"><defs><style>.cls-1{fill:#383a3f;}.cls-2{fill:#358060;}.cls-3{fill:#65c29c;}.cls-4{fill:#3e8989;}.cls-5{fill:#5bc6d1;}</style></defs><g id="Layer_2" data-name="Layer 2"><rect class="cls-1" width="512" height="512"/></g><g id="Layer_1" data-name="Layer 1"><path class="cls-2" d="M275.9,153.73H414v34.45H314v56.19h94.26v34.44H314v88.83H275.9Z" transform="translate(0 0)"/><path class="cls-3" d="M285.27,144.36H423.34V178.8h-100V235H417.6v34.44H323.34v88.83H285.27Z" transform="translate(0 0)"/><path class="cls-4" d="M82.24,153.74H120.3v85.2h100v-85.2H240.6v213.9H220.31V273.38h-100v94.26H82.24Z" transform="translate(0 0)"/><rect class="cls-4" x="202.53" y="153.74" width="38.07" height="213.9"/><path class="cls-5" d="M91.61,144.36h38.07v85.2h100v-85.2H250v213.9H229.68V264h-100v94.26H91.61Z" transform="translate(0 0)"/><rect class="cls-5" x="211.9" y="144.36" width="38.07" height="213.9"/></g></svg>