<svg id="Layer_1" data-name="Layer 1" xmlns="http://www.w3.org/2000/svg" viewBox="0 0 402.99 125.97"><defs><style>.cls-1{fill:none;stroke:#101010;stroke-miterlimit:10;stroke-width:6px;}.cls-2,.cls-3,.cls-5{fill:#101010;}.cls-3,.cls-5{font-size:44.08px;}.cls-3{font-family:Avenir-Book, Avenir;}.cls-4{letter-spacing:-0.02em;}.cls-5{font-family:Avenir-Medium, Avenir;font-weight:500;}</style></defs><title>logo-title-nobackground</title><path class="cls-1" d="M121,241.38,100.72,248H76.23L76,229.85s-20.82,2-20.46-19H76l10.6-10.42s15.17-5.66,21.75,3.48S121,241.38,121,241.38Z" transform="translate(-52.49 -193.02)"/><line class="cls-1" x1="48.23" y1="54.94" x2="44.11" y2="35.62"/><circle class="cls-2" cx="34.74" cy="21.56" r="3.23"/><rect class="cls-1" x="23.74" y="54.94" width="24.22" height="7.07"/><path class="cls-1" d="M76.23,255S68,271.12,69.11,280.9s5.58,13.1,7.12,17.32S74.44,316,74.44,316h-12" transform="translate(-52.49 -193.02)"/><path class="cls-1" d="M100.45,255s52.6.33,52.82,61h12.45s18.95-1.05,15.69-23.58" transform="translate(-52.49 -193.02)"/><path class="cls-1" d="M105.12,316h13.27s-9.68-3.52-6.64-17.62" transform="translate(-52.49 -193.02)"/><path class="cls-1" d="M181.41,292.4,176,253.32l-6.63-44.45s-.67-8,5.25-11.79c6.83-4.34,9.12,6,9.12,6s3.89,8.85-17.41,22c0,0-22.39,12.51-15.75,31.46s21.27,14.94,21.27,14.94,20.45-1.15,18.8-14.94-12.16-11.82-12.16-11.82-15.48,4-11.06,15.37" transform="translate(-52.49 -193.02)"/><text class="cls-3" transform="translate(172.62 62.02)">Sco<tspan class="cls-4" x="71.9" y="0">r</tspan><tspan x="85.74" y="0">e</tspan></text><text class="cls-5" transform="translate(172.62 102.93)">Companion</text></svg>