<svg id="Layer_1" data-name="Layer 1" xmlns="http://www.w3.org/2000/svg" viewBox="0 0 286.78 255.8"><defs><style>.cls-1{fill:none;stroke:#101010;stroke-miterlimit:10;stroke-width:12px;}.cls-2{fill:#101010;}</style></defs><title>logo-nobackground</title><path class="cls-1" d="M251.75,226.29l-41.22,13.37H160.76l-.56-36.8s-42.32,4.09-41.58-38.61H160.2l21.54-21.17s30.82-11.51,44.18,7.06S251.75,226.29,251.75,226.29Z" transform="translate(-112.61 -128.1)"/><line class="cls-1" x1="97.92" y1="111.56" x2="89.55" y2="72.28"/><circle class="cls-2" cx="71.43" cy="44.64" r="7.48"/><rect class="cls-1" x="48.15" y="111.56" width="49.22" height="14.38"/><path class="cls-1" d="M160.76,254S144,286.74,146.29,306.59s11.34,26.63,14.47,35.21-3.64,36.1-3.64,36.1H132.75" transform="translate(-112.61 -128.1)"/><path class="cls-1" d="M210,254s106.9.66,107.35,123.87h25.29s38.51-2.14,31.89-47.94" transform="translate(-112.61 -128.1)"/><path class="cls-1" d="M219.47,377.9h27s-19.65-7.17-13.48-35.82" transform="translate(-112.61 -128.1)"/><path class="cls-1" d="M374.51,330l-11.08-79.41L350,160.22s-1.35-16.34,10.68-24c13.88-8.8,18.53,12.23,18.53,12.23s7.92,18-35.38,44.79c0,0-45.49,25.42-32,63.93S355,287.56,355,287.56s41.56-2.35,38.19-30.36-24.71-24-24.71-24S337,241.27,346,264.42" transform="translate(-112.61 -128.1)"/></svg>